<svg width="24" height="24" viewBox="0 0 24 24" fill="none" xmlns="http://www.w3.org/2000/svg">
<path fill-rule="evenodd" clip-rule="evenodd" d="M16.3827 14H8.76473L7.12773 8.00002H19.3827L16.3827 14ZM21.0828 6.948C20.7158 6.354 20.0798 6 19.3818 6H6.58176L5.96476 3.737C5.84576 3.302 5.45076 3 4.99976 3H2.99976C2.44676 3 1.99976 3.448 1.99976 4C1.99976 4.552 2.44676 5 2.99976 5H4.23576L7.03476 15.263C7.15376 15.698 7.54876 16 7.99976 16H16.9998C17.3788 16 17.7248 15.786 17.8948 15.447L21.1708 8.894C21.4838 8.269 21.4498 7.542 21.0828 6.948ZM7.49997 18C6.67197 18 5.99997 18.671 5.99997 19.5C5.99997 20.329 6.67197 21 7.49997 21C8.32797 21 8.99997 20.329 8.99997 19.5C8.99997 18.671 8.32797 18 7.49997 18ZM15.9999 19.5C15.9999 18.671 16.6719 18 17.4999 18C18.3279 18 19 18.671 19 19.5C19 20.329 18.3279 21 17.4999 21C16.6719 21 15.9999 20.329 15.9999 19.5Z" fill="black"/>
<mask id="mask0_180_1131" style="mask-type:alpha" maskUnits="userSpaceOnUse" x="1" y="3" width="21" height="18">
<path fill-rule="evenodd" clip-rule="evenodd" d="M16.3827 14H8.76473L7.12773 8.00002H19.3827L16.3827 14ZM21.0828 6.948C20.7158 6.354 20.0798 6 19.3818 6H6.58176L5.96476 3.737C5.84576 3.302 5.45076 3 4.99976 3H2.99976C2.44676 3 1.99976 3.448 1.99976 4C1.99976 4.552 2.44676 5 2.99976 5H4.23576L7.03476 15.263C7.15376 15.698 7.54876 16 7.99976 16H16.9998C17.3788 16 17.7248 15.786 17.8948 15.447L21.1708 8.894C21.4838 8.269 21.4498 7.542 21.0828 6.948ZM7.49997 18C6.67197 18 5.99997 18.671 5.99997 19.5C5.99997 20.329 6.67197 21 7.49997 21C8.32797 21 8.99997 20.329 8.99997 19.5C8.99997 18.671 8.32797 18 7.49997 18ZM15.9999 19.5C15.9999 18.671 16.6719 18 17.4999 18C18.3279 18 19 18.671 19 19.5C19 20.329 18.3279 21 17.4999 21C16.6719 21 15.9999 20.329 15.9999 19.5Z" fill="white"/>
</mask>
<g mask="url(#mask0_180_1131)">
<rect width="24" height="24" fill="#00AC4E"/>
</g>
</svg>
