<?xml version="1.0" standalone="no"?>
<!DOCTYPE svg PUBLIC "-//W3C//DTD SVG 20010904//EN"
 "http://www.w3.org/TR/2001/REC-SVG-20010904/DTD/svg10.dtd">
<svg version="1.0" xmlns="http://www.w3.org/2000/svg"
 width="245.000000pt" height="245.000000pt" viewBox="0 0 245.000000 245.000000"
 preserveAspectRatio="xMidYMid meet">
<metadata>
Created by potrace 1.14, written by Peter Selinger 2001-2017
</metadata>
<g transform="translate(0.000000,245.000000) scale(0.100000,-0.100000)"
fill="#000000" stroke="none">
<path d="M17 1840 c-9 -4 -12 -144 -11 -610 1 -333 2 -611 3 -617 1 -18 251
-18 252 0 3 54 0 334 -5 472 -15 381 -15 420 -6 400 8 -18 141 -384 265 -730
24 -66 46 -128 50 -137 6 -15 21 -18 95 -18 l88 0 82 228 c46 125 101 277 122
337 22 61 60 164 84 230 l44 120 -5 -165 c-4 -91 -8 -199 -11 -242 -3 -66 -8
-460 -5 -496 1 -10 31 -12 128 -10 l128 3 0 618 c0 339 -2 617 -5 618 -3 0
-78 2 -167 2 l-163 2 -10 -25 c-13 -34 -200 -561 -205 -580 -14 -54 -99 -280
-105 -280 -4 0 -22 42 -40 93 -17 50 -70 200 -117 332 -46 132 -101 285 -120
340 -19 55 -38 105 -42 110 -6 10 -300 15 -324 5z"/>
<path d="M1447 1838 c-8 -4 -12 -38 -11 -99 0 -77 3 -93 17 -98 9 -3 93 -6
187 -5 l170 1 1 -26 c0 -14 0 -248 0 -518 l-1 -493 130 0 130 0 0 518 0 518
168 0 c236 -1 213 -13 210 107 l-3 102 -493 0 c-271 0 -499 -3 -505 -7z"/>
</g>
</svg>
